<?xml version="1.0" encoding="UTF-8"?>
<svg width="1600px" height="4292px" viewBox="0 0 1600 4292" version="1.1" xmlns="http://www.w3.org/2000/svg" xmlns:xlink="http://www.w3.org/1999/xlink">
    <!-- Generator: Sketch 59.1 (86144) - https://sketch.com -->
    <title>Group</title>
    <desc>Created with Sketch.</desc>
    <defs>
        <polygon id="path-1" points="0 0 3411 0 3411 4201 0 4201"></polygon>
        <polygon id="path-3" points="0 0 3411 0 3411 4201 0 4201"></polygon>
    </defs>
    <g id="PC" stroke="none" stroke-width="1" fill="none" fill-rule="evenodd">
        <g id="Detalle---Ej.-Producto1" transform="translate(0.000000, -149.000000)">
            <g id="Group" transform="translate(-1624.000000, 25.000000)">
                <g id="Group-3-Copy" transform="translate(946.000000, 581.000000)">
                    <mask id="mask-2" fill="white">
                        <use xlink:href="#path-1"></use>
                    </mask>
                    <g id="Clip-2"></g>
                    <path d="M1091.3234,3834.17983 C1107.25694,3841.64349 1121.94777,3854.0671 1134.84974,3871.15797 C1153.94941,3896.46005 1168.32363,3931.40121 1174.28782,3967.01873 C1176.5239,3980.36392 1178.31276,3994.29451 1180.04226,4007.77023 C1186.96816,4061.62565 1194.12757,4117.32425 1231.31769,4156.79819 C1253.8249,4180.69614 1285.35161,4195.46525 1322.49029,4199.50757 C1356.71613,4203.23346 1393.11472,4197.4073 1424.98971,4183.10096 C1489.39666,4154.19164 1536.96377,4098.14498 1576.49287,4047.88097 C1618.93481,3993.9148 1660.79497,3936.30974 1701.27392,3880.60324 C1780.7081,3771.28258 1862.84932,3658.23998 1955.86223,3563.21379 C2005.98203,3512.00841 2055.00951,3470.16129 2105.74671,3435.27155 C2162.77262,3396.07053 2220.41593,3366.63516 2281.98524,3345.29233 C2326.82948,3329.74799 2374.70924,3318.51097 2421.01781,3307.64179 C2468.68782,3296.45223 2517.98047,3284.88692 2563.63603,3268.6504 C2614.78878,3250.46391 2655.99593,3228.15995 2689.60833,3200.47677 C2724.72464,3171.55558 2755.10759,3133.86549 2782.49064,3085.26271 C2806.94501,3041.86511 2826.90349,2993.78838 2846.20104,2947.29378 C2870.06968,2889.78365 2894.7536,2830.31565 2928.45703,2778.06608 C2952.84017,2740.26919 2982.9263,2704.69518 3012.01905,2670.29194 C3039.37043,2637.94942 3067.64791,2604.50336 3090.83584,2569.56616 C3116.806,2530.42447 3133.58647,2493.36722 3142.13106,2456.27437 C3151.31283,2416.43259 3151.20597,2374.55383 3151.10703,2334.05151 C3151.01601,2297.80115 3150.91707,2260.31673 3157.46303,2224.30763 C3173.53113,2135.84329 3228.41991,2057.37005 3281.50004,1981.47567 C3315.39739,1933.01133 3350.44642,1882.89762 3373.78474,1831.81091 C3386.33052,1804.34132 3394.65348,1778.67139 3399.23249,1753.3258 C3404.36953,1724.92672 3404.71781,1697.61929 3400.30502,1669.84119 C3392.8567,1622.9827 3370.93127,1579.15793 3349.72613,1536.76893 C3343.52052,1524.36509 3337.10911,1511.54991 3331.16471,1498.86129 C3312.65077,1459.3478 3297.03385,1417.8171 3284.75323,1375.41624 C3273.05439,1335.03654 3263.99531,1292.54074 3257.82928,1249.1115 C3246.45496,1169.05218 3244.29012,1084.28605 3251.20415,989.979731 C3264.03489,815.008928 3306.84489,634.480922 3348.23805,459.893784 C3368.01843,376.476413 3388.47161,290.215179 3405.08191,206.647506 C3416.23064,150.565245 3412.22153,70.9291448 3377.07751,28.6113426 C3361.3379,9.66543426 3340.98762,0.17665889 3316.58865,0.402004567 C3303.84498,32.7129933 3284.89571,62.9908488 3260.25136,90.4050639 C3237.76394,115.430275 3209.94951,138.715152 3177.59169,159.60707 C3123.34405,194.631291 3054.18395,224.260477 2972.01899,247.687745 C2943.66236,255.768432 2914.34797,263.354706 2886.00322,270.691796 C2829.00896,285.441126 2770.08337,300.688825 2714.92547,320.967671 C2653.01977,343.730448 2602.78915,370.480172 2561.37225,402.735679 C2529.46955,427.586857 2500.49157,457.552244 2472.4753,486.528804 C2447.85074,511.997009 2422.38716,538.331426 2395.2297,560.837109 C2364.78739,586.05613 2335.28304,603.775894 2305.03069,615.005003 C2268.67167,628.492591 2229.0555,633.203359 2190.73744,637.763825 C2151.39435,642.438995 2110.71357,647.276332 2073.6026,661.630132 C2020.22169,682.276821 1976.8774,721.414559 1934.96183,759.258912 C1894.10691,796.146081 1851.86286,834.291037 1800.28268,855.428184 C1777.05518,864.948602 1752.82243,870.988352 1726.19925,873.883634 C1702.47309,876.466448 1677.37361,876.482269 1649.46815,873.923187 C1597.62282,869.172867 1543.60076,855.993792 1491.3557,843.253757 C1441.99182,831.21381 1390.94988,818.762512 1341.48706,813.312102 C1285.99276,807.197201 1238.55625,810.756975 1196.45071,824.205011 C1153.19745,838.016934 1113.71584,863.160804 1075.5363,887.478016 C1049.83922,903.84111 1023.26749,920.769813 996.022966,933.865826 C965.501496,948.540006 937.220062,956.810547 909.559981,959.148132 C831.45953,965.761401 759.101643,925.808871 689.126267,887.173457 C672.401198,877.941777 655.106226,868.393672 638.135783,859.723644 C590.184782,835.236355 538.948923,820.771806 493.831605,818.99983 C468.170142,817.987272 444.827867,821.088231 424.453836,828.207779 C402.045568,836.035326 383.199194,848.759541 368.433167,866.03631 C357.992862,878.250291 349.942982,892.619912 342.158266,906.518851 C331.998955,924.661833 321.487411,943.425797 305.613239,957.352424 C291.12029,970.072683 272.736963,978.616141 249.402603,983.485121 C228.581356,987.832 205.725873,988.923664 183.618388,989.987641 C144.904564,991.846634 104.876796,993.772867 72.7326865,1012.88094 C50.5143866,1026.09166 33.1996267,1041.52526 21.2672835,1058.75061 C9.99586953,1075.02669 3.21639896,1093.34766 1.11092416,1113.21515 C-2.31640889,1145.60909 6.5764518,1183.39412 27.5441314,1225.52602 C45.6662538,1261.94251 73.4846418,1302.89573 110.227552,1347.25052 C177.895612,1428.93942 263.662049,1508.38171 332.572815,1572.21637 C382.41162,1618.38268 421.778458,1654.84268 437.620969,1676.78275 C470.67534,1722.56144 495.901461,1771.8564 514.743878,1827.48776 C531.540184,1877.09519 542.84326,1930.6777 549.298202,1991.28878 C561.293868,2103.95959 554.229446,2225.03145 547.394568,2342.12033 C541.458079,2443.85867 535.319749,2549.06186 541.418502,2649.88257 C544.70336,2704.18495 551.17809,2752.79168 561.206799,2798.4794 C572.474256,2849.80343 587.897254,2896.12796 608.358354,2940.10699 C614.892449,2954.14041 622.107262,2968.2292 629.092531,2981.85127 C646.581428,3015.97368 664.660016,3051.25896 673.509343,3088.82644 C691.457328,3165.04911 670.541098,3242.77875 650.309543,3317.94536 C645.778023,3334.77122 641.096112,3352.17061 636.960358,3369.17842 C616.483428,3453.39871 607.258124,3568.74726 679.616011,3639.97833 C698.719633,3658.78581 722.746583,3673.4323 745.98596,3687.6002 C763.775639,3698.4496 782.174797,3709.66289 797.886705,3722.52554 C815.486416,3736.93867 827.905552,3752.03607 835.852532,3768.68394 C840.566104,3778.56429 843.922199,3789.4928 847.16748,3800.06137 C853.634296,3821.14314 860.32274,3842.93687 878.060969,3856.21483 C907.933383,3878.5623 942.49958,3863.55587 979.084184,3847.65951 C1003.12696,3837.20959 1027.99294,3826.4037 1052.64916,3825.91324 C1066.10124,3825.64428 1079.08236,3828.44464 1091.3234,3834.17983 M1271.26235,4185.96065 C1255.87497,4178.75409 1242.32394,4169.05963 1231.02878,4157.07111 C1193.75159,4117.50224 1186.58427,4061.74036 1179.65045,4007.81769 C1177.92095,3994.34988 1176.13209,3980.4193 1173.89997,3967.08597 C1167.94369,3931.52778 1153.59322,3896.64991 1134.52917,3871.39529 C1111.80429,3841.2796 1083.4912,3825.69174 1052.65311,3826.30877 C1028.08001,3826.79923 1003.25361,3837.58534 979.24249,3848.02339 C942.547072,3863.96327 907.909637,3879.02902 877.82351,3856.5273 C859.982381,3843.17419 853.278106,3821.31718 846.787545,3800.18003 C843.546222,3789.62332 840.194084,3778.70668 835.496342,3768.85797 C827.573108,3752.26152 815.19355,3737.20367 797.633415,3722.83405 C781.945253,3709.98722 763.557967,3698.77789 745.776204,3687.9364 C722.520997,3673.75663 698.470301,3659.09828 679.338975,3640.25916 C647.642081,3609.05576 628.859029,3566.47691 623.520147,3513.71315 C619.206298,3471.10266 623.5993,3422.4445 636.576465,3369.08744 C640.712219,3352.07172 645.398088,3334.67234 649.92565,3317.84647 C670.145332,3242.71942 691.053647,3165.0412 673.12545,3088.92136 C664.287996,3051.39344 646.217323,3016.1319 628.740299,2982.02926 C621.755031,2968.40324 614.53626,2954.31444 607.998207,2940.27311 C587.525234,2896.27035 572.09432,2849.91814 560.822906,2798.56246 C550.786282,2752.85497 544.311551,2704.2245 541.022736,2649.9063 C534.923983,2549.06582 541.062313,2443.84681 547.00276,2342.0966 C553.83368,2225.0275 560.898102,2103.96354 548.902436,1991.33229 C542.451451,1930.74494 531.152334,1877.19803 514.363943,1827.61433 C495.541314,1772.02253 470.331024,1722.75921 437.296441,1677.01611 C421.477676,1655.10768 382.126669,1618.6556 332.303694,1572.50115 C263.381056,1508.66253 177.606703,1429.20838 109.922812,1347.4997 C73.1601137,1303.12514 45.3258951,1262.14423 27.1918997,1225.70401 C6.18860118,1183.50487 -2.72009015,1145.64469 0.719115874,1113.1756 C2.82854834,1093.23691 9.63176487,1074.85265 20.9427555,1058.52911 C32.9067599,1041.25234 50.265054,1025.77919 72.5308459,1012.54079 C104.758066,993.377337 144.841241,991.455059 183.602557,989.592111 C205.690254,988.532089 228.533865,987.43647 249.323449,983.097501 C272.582614,978.244342 290.914492,969.728572 305.352034,957.055776 C321.178714,943.172658 331.666511,924.440336 341.81395,906.328997 C349.606581,892.41028 357.668333,878.020883 368.132385,865.77526 C382.945904,848.451027 401.851643,835.687259 424.323233,827.832025 C444.744756,820.696656 468.138481,817.595697 493.847436,818.604299 C539.020161,820.384186 590.3233,834.880377 638.317835,859.375578 C655.292236,868.04165 672.591166,877.59371 689.320192,886.829346 C759.244119,925.433117 831.550556,965.35005 909.524362,958.756557 C937.140909,956.418972 965.374851,948.160297 995.856744,933.505894 C1023.07357,920.421747 1049.63738,903.504909 1075.32655,887.141815 C1113.52192,862.816693 1153.02727,837.657001 1196.33594,823.825301 C1238.48897,810.361445 1285.98484,806.79376 1341.53059,812.916572 C1391.01716,818.370937 1442.07097,830.82619 1491.45069,842.866137 C1543.67596,855.606173 1597.68614,868.777336 1649.50377,873.531612 C1677.38548,876.086739 1702.45726,876.070918 1726.15572,873.492059 C1752.73932,870.596776 1776.94041,864.568892 1800.13229,855.060341 C1851.64914,833.950881 1893.8655,795.833612 1934.69667,758.970174 C1976.63994,721.094179 2020.01193,681.936665 2073.46012,661.262289 C2110.61859,646.888712 2151.32707,642.051375 2190.68995,637.368294 C2228.98426,632.815739 2268.58065,628.104971 2304.89217,614.633205 C2335.10099,603.423872 2364.56972,585.723884 2394.97641,560.528595 C2422.122,538.038734 2447.56975,511.716183 2472.19035,486.255888 C2500.21849,457.267462 2529.20043,427.290209 2561.13083,402.42321 C2602.5794,370.140016 2652.84563,343.37447 2714.79091,320.595872 C2769.96069,300.313071 2828.90211,285.057462 2885.90032,270.308131 C2914.24508,262.971042 2943.55946,255.384768 2971.91213,247.304081 C3054.03752,223.892634 3123.16596,194.275314 3177.38193,159.27087 C3209.7081,138.398728 3237.48691,115.141538 3259.9585,90.1400585 C3284.60284,62.7258434 3303.5442,32.4440326 3316.26808,0.133150541 L3316.31557,0.00516155954 L3316.44617,0.00516155954 C3341.03115,-0.254469294 3361.53183,9.28176972 3377.38225,28.3582031 C3412.60938,70.7748879 3416.63828,150.553379 3405.46976,206.726612 C3388.85551,290.29824 3368.39837,376.56343 3348.62194,459.984756 C3307.22878,634.556073 3264.4267,815.068257 3251.59992,990.007418 C3244.68589,1084.28605 3246.85073,1169.0245 3258.22109,1249.05613 C3264.38316,1292.46955 3273.43829,1334.94556 3285.13317,1375.30549 C3297.40983,1417.69053 3313.01884,1459.20145 3331.5209,1498.69517 C3337.4653,1511.37587 3343.87671,1524.19501 3350.07836,1536.59094 C3371.29933,1579.00367 3393.24059,1622.86008 3400.69682,1669.77791 C3405.12149,1697.59952 3404.76926,1724.95045 3399.6243,1753.397 C3395.03737,1778.77423 3386.69858,1804.4758 3374.14489,1831.97307 C3350.79074,1883.09538 3315.73379,1933.22491 3281.82457,1981.70112 C3228.76818,2057.55991 3173.90711,2135.99755 3157.84693,2224.37883 C3151.31283,2260.35232 3151.40782,2297.82092 3151.5028,2334.05151 C3151.60174,2374.5736 3151.7086,2416.4761 3142.51891,2456.36139 C3133.96245,2493.5017 3117.16615,2530.60245 3091.16432,2569.7837 C3067.96452,2604.74068 3039.67913,2638.19465 3012.32379,2670.54508 C2983.23499,2704.94041 2953.16074,2740.50651 2928.78947,2778.28362 C2895.10583,2830.49759 2870.42983,2889.95373 2846.56514,2947.44803 C2827.26364,2993.95055 2807.3012,3042.0431 2782.83495,3085.45652 C2755.42816,3134.10676 2725.01355,3171.8285 2689.85766,3200.78133 C2656.20964,3228.49615 2614.96291,3250.82384 2563.76663,3269.0222 C2518.09524,3285.26268 2468.79072,3296.8359 2421.10884,3308.02545 C2374.81214,3318.89068 2326.94029,3330.12374 2282.11188,3345.66809 C2220.57819,3366.99904 2162.96259,3396.41464 2105.97229,3435.59984 C2055.25489,3470.46981 2006.24719,3512.30506 1956.14718,3563.4867 C1863.1501,3658.49707 1781.02075,3771.52781 1701.59053,3880.8366 C1661.11159,3936.54311 1619.25142,3994.15212 1576.80157,4048.13016 C1537.24476,4098.42976 1489.64204,4154.51598 1425.15198,4183.4609 C1393.21366,4197.79888 1356.73988,4203.63295 1322.44676,4199.89914 C1303.8418,4197.87403 1286.6339,4193.1593 1271.26235,4185.96065" id="Fill-1" stroke="#979797" fill="#000000" mask="url(#mask-2)"></path>
                </g>
                <g id="Group-3">
                    <mask id="mask-4" fill="white">
                        <use xlink:href="#path-3"></use>
                    </mask>
                    <g id="Clip-2"></g>
                    <path d="M1091.3234,3834.17983 C1107.25694,3841.64349 1121.94777,3854.0671 1134.84974,3871.15797 C1153.94941,3896.46005 1168.32363,3931.40121 1174.28782,3967.01873 C1176.5239,3980.36392 1178.31276,3994.29451 1180.04226,4007.77023 C1186.96816,4061.62565 1194.12757,4117.32425 1231.31769,4156.79819 C1253.8249,4180.69614 1285.35161,4195.46525 1322.49029,4199.50757 C1356.71613,4203.23346 1393.11472,4197.4073 1424.98971,4183.10096 C1489.39666,4154.19164 1536.96377,4098.14498 1576.49287,4047.88097 C1618.93481,3993.9148 1660.79497,3936.30974 1701.27392,3880.60324 C1780.7081,3771.28258 1862.84932,3658.23998 1955.86223,3563.21379 C2005.98203,3512.00841 2055.00951,3470.16129 2105.74671,3435.27155 C2162.77262,3396.07053 2220.41593,3366.63516 2281.98524,3345.29233 C2326.82948,3329.74799 2374.70924,3318.51097 2421.01781,3307.64179 C2468.68782,3296.45223 2517.98047,3284.88692 2563.63603,3268.6504 C2614.78878,3250.46391 2655.99593,3228.15995 2689.60833,3200.47677 C2724.72464,3171.55558 2755.10759,3133.86549 2782.49064,3085.26271 C2806.94501,3041.86511 2826.90349,2993.78838 2846.20104,2947.29378 C2870.06968,2889.78365 2894.7536,2830.31565 2928.45703,2778.06608 C2952.84017,2740.26919 2982.9263,2704.69518 3012.01905,2670.29194 C3039.37043,2637.94942 3067.64791,2604.50336 3090.83584,2569.56616 C3116.806,2530.42447 3133.58647,2493.36722 3142.13106,2456.27437 C3151.31283,2416.43259 3151.20597,2374.55383 3151.10703,2334.05151 C3151.01601,2297.80115 3150.91707,2260.31673 3157.46303,2224.30763 C3173.53113,2135.84329 3228.41991,2057.37005 3281.50004,1981.47567 C3315.39739,1933.01133 3350.44642,1882.89762 3373.78474,1831.81091 C3386.33052,1804.34132 3394.65348,1778.67139 3399.23249,1753.3258 C3404.36953,1724.92672 3404.71781,1697.61929 3400.30502,1669.84119 C3392.8567,1622.9827 3370.93127,1579.15793 3349.72613,1536.76893 C3343.52052,1524.36509 3337.10911,1511.54991 3331.16471,1498.86129 C3312.65077,1459.3478 3297.03385,1417.8171 3284.75323,1375.41624 C3273.05439,1335.03654 3263.99531,1292.54074 3257.82928,1249.1115 C3246.45496,1169.05218 3244.29012,1084.28605 3251.20415,989.979731 C3264.03489,815.008928 3306.84489,634.480922 3348.23805,459.893784 C3368.01843,376.476413 3388.47161,290.215179 3405.08191,206.647506 C3416.23064,150.565245 3412.22153,70.9291448 3377.07751,28.6113426 C3361.3379,9.66543426 3340.98762,0.17665889 3316.58865,0.402004567 C3303.84498,32.7129933 3284.89571,62.9908488 3260.25136,90.4050639 C3237.76394,115.430275 3209.94951,138.715152 3177.59169,159.60707 C3123.34405,194.631291 3054.18395,224.260477 2972.01899,247.687745 C2943.66236,255.768432 2914.34797,263.354706 2886.00322,270.691796 C2829.00896,285.441126 2770.08337,300.688825 2714.92547,320.967671 C2653.01977,343.730448 2602.78915,370.480172 2561.37225,402.735679 C2529.46955,427.586857 2500.49157,457.552244 2472.4753,486.528804 C2447.85074,511.997009 2422.38716,538.331426 2395.2297,560.837109 C2364.78739,586.05613 2335.28304,603.775894 2305.03069,615.005003 C2268.67167,628.492591 2229.0555,633.203359 2190.73744,637.763825 C2151.39435,642.438995 2110.71357,647.276332 2073.6026,661.630132 C2020.22169,682.276821 1976.8774,721.414559 1934.96183,759.258912 C1894.10691,796.146081 1851.86286,834.291037 1800.28268,855.428184 C1777.05518,864.948602 1752.82243,870.988352 1726.19925,873.883634 C1702.47309,876.466448 1677.37361,876.482269 1649.46815,873.923187 C1597.62282,869.172867 1543.60076,855.993792 1491.3557,843.253757 C1441.99182,831.21381 1390.94988,818.762512 1341.48706,813.312102 C1285.99276,807.197201 1238.55625,810.756975 1196.45071,824.205011 C1153.19745,838.016934 1113.71584,863.160804 1075.5363,887.478016 C1049.83922,903.84111 1023.26749,920.769813 996.022966,933.865826 C965.501496,948.540006 937.220062,956.810547 909.559981,959.148132 C831.45953,965.761401 759.101643,925.808871 689.126267,887.173457 C672.401198,877.941777 655.106226,868.393672 638.135783,859.723644 C590.184782,835.236355 538.948923,820.771806 493.831605,818.99983 C468.170142,817.987272 444.827867,821.088231 424.453836,828.207779 C402.045568,836.035326 383.199194,848.759541 368.433167,866.03631 C357.992862,878.250291 349.942982,892.619912 342.158266,906.518851 C331.998955,924.661833 321.487411,943.425797 305.613239,957.352424 C291.12029,970.072683 272.736963,978.616141 249.402603,983.485121 C228.581356,987.832 205.725873,988.923664 183.618388,989.987641 C144.904564,991.846634 104.876796,993.772867 72.7326865,1012.88094 C50.5143866,1026.09166 33.1996267,1041.52526 21.2672835,1058.75061 C9.99586953,1075.02669 3.21639896,1093.34766 1.11092416,1113.21515 C-2.31640889,1145.60909 6.5764518,1183.39412 27.5441314,1225.52602 C45.6662538,1261.94251 73.4846418,1302.89573 110.227552,1347.25052 C177.895612,1428.93942 263.662049,1508.38171 332.572815,1572.21637 C382.41162,1618.38268 421.778458,1654.84268 437.620969,1676.78275 C470.67534,1722.56144 495.901461,1771.8564 514.743878,1827.48776 C531.540184,1877.09519 542.84326,1930.6777 549.298202,1991.28878 C561.293868,2103.95959 554.229446,2225.03145 547.394568,2342.12033 C541.458079,2443.85867 535.319749,2549.06186 541.418502,2649.88257 C544.70336,2704.18495 551.17809,2752.79168 561.206799,2798.4794 C572.474256,2849.80343 587.897254,2896.12796 608.358354,2940.10699 C614.892449,2954.14041 622.107262,2968.2292 629.092531,2981.85127 C646.581428,3015.97368 664.660016,3051.25896 673.509343,3088.82644 C691.457328,3165.04911 670.541098,3242.77875 650.309543,3317.94536 C645.778023,3334.77122 641.096112,3352.17061 636.960358,3369.17842 C616.483428,3453.39871 607.258124,3568.74726 679.616011,3639.97833 C698.719633,3658.78581 722.746583,3673.4323 745.98596,3687.6002 C763.775639,3698.4496 782.174797,3709.66289 797.886705,3722.52554 C815.486416,3736.93867 827.905552,3752.03607 835.852532,3768.68394 C840.566104,3778.56429 843.922199,3789.4928 847.16748,3800.06137 C853.634296,3821.14314 860.32274,3842.93687 878.060969,3856.21483 C907.933383,3878.5623 942.49958,3863.55587 979.084184,3847.65951 C1003.12696,3837.20959 1027.99294,3826.4037 1052.64916,3825.91324 C1066.10124,3825.64428 1079.08236,3828.44464 1091.3234,3834.17983 M1271.26235,4185.96065 C1255.87497,4178.75409 1242.32394,4169.05963 1231.02878,4157.07111 C1193.75159,4117.50224 1186.58427,4061.74036 1179.65045,4007.81769 C1177.92095,3994.34988 1176.13209,3980.4193 1173.89997,3967.08597 C1167.94369,3931.52778 1153.59322,3896.64991 1134.52917,3871.39529 C1111.80429,3841.2796 1083.4912,3825.69174 1052.65311,3826.30877 C1028.08001,3826.79923 1003.25361,3837.58534 979.24249,3848.02339 C942.547072,3863.96327 907.909637,3879.02902 877.82351,3856.5273 C859.982381,3843.17419 853.278106,3821.31718 846.787545,3800.18003 C843.546222,3789.62332 840.194084,3778.70668 835.496342,3768.85797 C827.573108,3752.26152 815.19355,3737.20367 797.633415,3722.83405 C781.945253,3709.98722 763.557967,3698.77789 745.776204,3687.9364 C722.520997,3673.75663 698.470301,3659.09828 679.338975,3640.25916 C647.642081,3609.05576 628.859029,3566.47691 623.520147,3513.71315 C619.206298,3471.10266 623.5993,3422.4445 636.576465,3369.08744 C640.712219,3352.07172 645.398088,3334.67234 649.92565,3317.84647 C670.145332,3242.71942 691.053647,3165.0412 673.12545,3088.92136 C664.287996,3051.39344 646.217323,3016.1319 628.740299,2982.02926 C621.755031,2968.40324 614.53626,2954.31444 607.998207,2940.27311 C587.525234,2896.27035 572.09432,2849.91814 560.822906,2798.56246 C550.786282,2752.85497 544.311551,2704.2245 541.022736,2649.9063 C534.923983,2549.06582 541.062313,2443.84681 547.00276,2342.0966 C553.83368,2225.0275 560.898102,2103.96354 548.902436,1991.33229 C542.451451,1930.74494 531.152334,1877.19803 514.363943,1827.61433 C495.541314,1772.02253 470.331024,1722.75921 437.296441,1677.01611 C421.477676,1655.10768 382.126669,1618.6556 332.303694,1572.50115 C263.381056,1508.66253 177.606703,1429.20838 109.922812,1347.4997 C73.1601137,1303.12514 45.3258951,1262.14423 27.1918997,1225.70401 C6.18860118,1183.50487 -2.72009015,1145.64469 0.719115874,1113.1756 C2.82854834,1093.23691 9.63176487,1074.85265 20.9427555,1058.52911 C32.9067599,1041.25234 50.265054,1025.77919 72.5308459,1012.54079 C104.758066,993.377337 144.841241,991.455059 183.602557,989.592111 C205.690254,988.532089 228.533865,987.43647 249.323449,983.097501 C272.582614,978.244342 290.914492,969.728572 305.352034,957.055776 C321.178714,943.172658 331.666511,924.440336 341.81395,906.328997 C349.606581,892.41028 357.668333,878.020883 368.132385,865.77526 C382.945904,848.451027 401.851643,835.687259 424.323233,827.832025 C444.744756,820.696656 468.138481,817.595697 493.847436,818.604299 C539.020161,820.384186 590.3233,834.880377 638.317835,859.375578 C655.292236,868.04165 672.591166,877.59371 689.320192,886.829346 C759.244119,925.433117 831.550556,965.35005 909.524362,958.756557 C937.140909,956.418972 965.374851,948.160297 995.856744,933.505894 C1023.07357,920.421747 1049.63738,903.504909 1075.32655,887.141815 C1113.52192,862.816693 1153.02727,837.657001 1196.33594,823.825301 C1238.48897,810.361445 1285.98484,806.79376 1341.53059,812.916572 C1391.01716,818.370937 1442.07097,830.82619 1491.45069,842.866137 C1543.67596,855.606173 1597.68614,868.777336 1649.50377,873.531612 C1677.38548,876.086739 1702.45726,876.070918 1726.15572,873.492059 C1752.73932,870.596776 1776.94041,864.568892 1800.13229,855.060341 C1851.64914,833.950881 1893.8655,795.833612 1934.69667,758.970174 C1976.63994,721.094179 2020.01193,681.936665 2073.46012,661.262289 C2110.61859,646.888712 2151.32707,642.051375 2190.68995,637.368294 C2228.98426,632.815739 2268.58065,628.104971 2304.89217,614.633205 C2335.10099,603.423872 2364.56972,585.723884 2394.97641,560.528595 C2422.122,538.038734 2447.56975,511.716183 2472.19035,486.255888 C2500.21849,457.267462 2529.20043,427.290209 2561.13083,402.42321 C2602.5794,370.140016 2652.84563,343.37447 2714.79091,320.595872 C2769.96069,300.313071 2828.90211,285.057462 2885.90032,270.308131 C2914.24508,262.971042 2943.55946,255.384768 2971.91213,247.304081 C3054.03752,223.892634 3123.16596,194.275314 3177.38193,159.27087 C3209.7081,138.398728 3237.48691,115.141538 3259.9585,90.1400585 C3284.60284,62.7258434 3303.5442,32.4440326 3316.26808,0.133150541 L3316.31557,0.00516155954 L3316.44617,0.00516155954 C3341.03115,-0.254469294 3361.53183,9.28176972 3377.38225,28.3582031 C3412.60938,70.7748879 3416.63828,150.553379 3405.46976,206.726612 C3388.85551,290.29824 3368.39837,376.56343 3348.62194,459.984756 C3307.22878,634.556073 3264.4267,815.068257 3251.59992,990.007418 C3244.68589,1084.28605 3246.85073,1169.0245 3258.22109,1249.05613 C3264.38316,1292.46955 3273.43829,1334.94556 3285.13317,1375.30549 C3297.40983,1417.69053 3313.01884,1459.20145 3331.5209,1498.69517 C3337.4653,1511.37587 3343.87671,1524.19501 3350.07836,1536.59094 C3371.29933,1579.00367 3393.24059,1622.86008 3400.69682,1669.77791 C3405.12149,1697.59952 3404.76926,1724.95045 3399.6243,1753.397 C3395.03737,1778.77423 3386.69858,1804.4758 3374.14489,1831.97307 C3350.79074,1883.09538 3315.73379,1933.22491 3281.82457,1981.70112 C3228.76818,2057.55991 3173.90711,2135.99755 3157.84693,2224.37883 C3151.31283,2260.35232 3151.40782,2297.82092 3151.5028,2334.05151 C3151.60174,2374.5736 3151.7086,2416.4761 3142.51891,2456.36139 C3133.96245,2493.5017 3117.16615,2530.60245 3091.16432,2569.7837 C3067.96452,2604.74068 3039.67913,2638.19465 3012.32379,2670.54508 C2983.23499,2704.94041 2953.16074,2740.50651 2928.78947,2778.28362 C2895.10583,2830.49759 2870.42983,2889.95373 2846.56514,2947.44803 C2827.26364,2993.95055 2807.3012,3042.0431 2782.83495,3085.45652 C2755.42816,3134.10676 2725.01355,3171.8285 2689.85766,3200.78133 C2656.20964,3228.49615 2614.96291,3250.82384 2563.76663,3269.0222 C2518.09524,3285.26268 2468.79072,3296.8359 2421.10884,3308.02545 C2374.81214,3318.89068 2326.94029,3330.12374 2282.11188,3345.66809 C2220.57819,3366.99904 2162.96259,3396.41464 2105.97229,3435.59984 C2055.25489,3470.46981 2006.24719,3512.30506 1956.14718,3563.4867 C1863.1501,3658.49707 1781.02075,3771.52781 1701.59053,3880.8366 C1661.11159,3936.54311 1619.25142,3994.15212 1576.80157,4048.13016 C1537.24476,4098.42976 1489.64204,4154.51598 1425.15198,4183.4609 C1393.21366,4197.79888 1356.73988,4203.63295 1322.44676,4199.89914 C1303.8418,4197.87403 1286.6339,4193.1593 1271.26235,4185.96065" id="Fill-1" stroke="#979797" fill="#000000" mask="url(#mask-4)"></path>
                </g>
            </g>
        </g>
    </g>
</svg>